<svg xmlns="http://www.w3.org/2000/svg" data-name="Layer 1" viewBox="0 0 512 512" id="carpenter"><path fill="#313848" d="M368.8 99.88H233.3V33.017a20 20 0 0 1 12.376-18.49l.25-.103a144.69 144.69 0 0 1 110.529.092A20 20 0 0 1 368.8 32.993Z"></path><path fill="#38508e" d="M132.347 365.32v-31.898a88.733 88.733 0 0 1 73.766-87.461l35.347-6.05a22.183 22.183 0 0 0 18.441-21.865v-32.312h82.297v32.312a22.183 22.183 0 0 0 18.442 21.866l31.41 5.375a88.733 88.733 0 0 1 73.648 92.025l-4.148 80.544c-1.73 33.597-38.762 53.12-67.46 35.565l-73.346-44.867-179.414-19.289Z"></path><path fill="#333353" d="m167.798 363.338.223-41.548 2.016-15.733 1.569-12.24a8.173 8.173 0 0 0-1.137-5.307l-5.663-9.248-5.703-9.321a88.61 88.61 0 0 0-26.756 63.481v7.44h16.38v22.476a34.593 34.593 0 0 1-8.561 22.823l1.164 3.104 18.658 2.006a53.555 53.555 0 0 0 7.81-27.933Z"></path><path fill="#f9beac" d="M241.46 239.912a22.183 22.183 0 0 0 18.441-21.866v-32.312h82.297v32.312a22.183 22.183 0 0 0 18.442 21.866l-59.591 75Z"></path><path fill="#e58a7b" d="M342.198 185.734h-82.297v26.43a67.647 67.647 0 0 0 55.149 28.421 67.446 67.446 0 0 0 32.383-8.228 22.137 22.137 0 0 1-5.235-14.31Z"></path><path fill="#333353" d="m308.413 318.922 44.062-27.246 26.064 22.774a10 10 0 0 0 16.47-9.006l-9.13-61.213-25.24-4.32-47.823 51.17Z"></path><path fill="#38508e" d="m301.05 307.014 47.343-29.275a8.65 8.65 0 0 1 10.579 1.021l20.586 17.988-7.959-53.354a15.102 15.102 0 0 0-4.104-8.558l-7.65-7.498c-4.766-4.673-11.53-3.392-15.086 2.857Z"></path><path fill="#333353" d="m241.459 239.912-25.239 4.319-13.143 88.117 46.548-40.672 44.062 27.246-3.902-27.082-48.326-51.928z"></path><path fill="#38508e" d="m301.05 307.014-47.343-29.275a8.65 8.65 0 0 0-10.58 1.021l-20.586 17.988 7.959-53.354a15.102 15.102 0 0 1 4.104-8.558l7.65-7.498c4.766-4.673 11.53-3.392 15.086 2.857zM194.219 359.72V505a7 7 0 0 0 7 7h199.66a7 7 0 0 0 7-7V359.72z"></path><path fill="#333353" d="M407.879 472.995V423.35l-55.316-18.415a12.201 12.201 0 0 1-6.009-4.394l-20.728-28.461a12.2 12.2 0 0 0-5.228-4.104l-20.104-8.255h-31.873a12.195 12.195 0 0 0-3.888 14.316l11.33 27.624a12.201 12.201 0 0 0 15.918 6.658l4.308-1.766 10.26 10.893a16.637 16.637 0 0 0 13.638 5.16l.557-.051 73.346 44.867a44.63 44.63 0 0 0 13.789 5.574Z"></path><path fill="#333353" d="M315.46 512V298.103l-14.41 8.907-14.41-8.906V512h28.82z"></path><path fill="#f9beac" d="M233.3 151.835V99.758a29.938 29.938 0 0 1 29.937-29.938h75.625A29.938 29.938 0 0 1 368.8 99.758v52.077a67.75 67.75 0 0 1-67.75 67.75 67.75 67.75 0 0 1-67.75-67.75Z"></path><path fill="#e58a7b" d="M368.8 148.159V106.01h10.421a9.777 9.777 0 0 1 9.612 11.565l-3.064 16.48a17.26 17.26 0 0 1-16.969 14.104zm-135.5 0V106.01h-10.422a9.777 9.777 0 0 0-9.612 11.565l3.065 16.48a17.26 17.26 0 0 0 16.968 14.104z"></path><path fill="#313848" d="M265.843 168.576c-.64-1.742.385-3.807 2.481-4.783a78.084 78.084 0 0 1 65.774.002c2.096.974 3.117 3.04 2.479 4.78l-3.822 10.615a4.022 4.022 0 0 1-5.49 2.11 62.253 62.253 0 0 0-52.113.002 4.02 4.02 0 0 1-5.488-2.112l-3.821-10.614Z"></path><path fill="#e58a7b" d="M312.229 143.75v7.512a11.18 11.18 0 0 1-11.18 11.18 11.18 11.18 0 0 1-11.179-11.18v-7.512a4 4 0 0 1 4-4h14.359a4 4 0 0 1 4 4Z"></path><path fill="#f9beac" d="m194.22 395.496-6.24 18.933c-10.458 31.741-50.843 41.095-74.191 17.184l26.543-53.973 53.887-.115Z"></path><path fill="#e58a7b" d="m138.274 381.824-24.485 49.789a43.998 43.998 0 0 0 34.321 13.357 26.035 26.035 0 0 0 17.458-24.547V416.2a35.36 35.36 0 0 0-27.294-34.377Z"></path><path fill="#dbe6fc" d="m154.021 321.79 2.016-15.733 1.569-12.24a8.173 8.173 0 0 0-1.137-5.307l-5.663-9.248-8.143-13.309a8.173 8.173 0 0 1-1.136-5.304l2.237-17.472 1.13-8.762a8.173 8.173 0 0 0-1.137-5.315l-4.012-6.547-9.802-16.003a8.173 8.173 0 0 1-1.137-5.311l2.698-20.983.67-5.24a8.173 8.173 0 0 0-1.135-5.303l-2.341-3.828-11.467-18.73a8.173 8.173 0 0 1-1.136-5.306l3.135-24.46.228-1.757a8.173 8.173 0 0 0-1.134-5.32l-.688-1.123-13.114-21.426a8.173 8.173 0 0 1-1.136-5.307l2.403-18.735a8.173 8.173 0 0 0-8.105-9.213l-46.05-.01a5.449 5.449 0 0 0-5.45 5.448V321.79H154.02"></path><path fill="#313848" d="M46.183 321.79v41.548a53.808 53.808 0 0 0 53.808 53.808 53.807 53.807 0 0 0 53.807-53.808l.223-41.548Zm88.544 41.548a34.736 34.736 0 0 1-34.736 34.736 34.736 34.736 0 0 1-34.737-34.736v-22.477h69.473Z"></path><path fill="#f9beac" d="M82.933 420.423v-4.222a21.305 21.305 0 0 1 21.305-21.304h26.026a21.305 21.305 0 0 1 21.304 21.304v4.222a11.994 11.994 0 0 1-11.994 11.994H94.927a11.994 11.994 0 0 1-11.994-11.994Z"></path><path fill="#dbe6fc" d="m330.975 459.356-19.301 12.95a14 14 0 0 1-19.538-3.993l-99.574-153.131a14 14 0 0 1 3.936-19.257l19.302-12.951a14 14 0 0 1 19.537 3.993L334.91 440.1a14 14 0 0 1-3.936 19.257Z"></path><path fill="#adb9d6" d="M282.645 359.72h-14.024a12.195 12.195 0 0 0-3.888 14.316l11.33 27.624a12.201 12.201 0 0 0 15.918 6.658l4.308-1.766 10.26 10.893a16.637 16.637 0 0 0 13.638 5.16l.557-.051 4.58 2.802Z"></path><path fill="#f9beac" d="m329.168 407.777-8.98.828a16.638 16.638 0 0 1-13.64-5.16l-10.259-10.893 7.645-3.136-11.953 4.902a12.2 12.2 0 0 1-15.918-6.658l-11.33-27.624a12.2 12.2 0 0 1 6.659-15.918l7.974-3.271a12.2 12.2 0 0 1 9.265.002l31.967 13.126a12.2 12.2 0 0 1 5.228 4.104l20.728 28.461a12.2 12.2 0 0 0 6.009 4.394l55.317 18.416v-49.63l56.884-4.274-3.214 62.41c-1.73 33.597-38.762 53.12-67.46 35.565l-73.346-44.867"></path><path fill="#38508e" d="m392.883 345.72 15 31.81h55.74l.004.001 1.49-28.933-72.234-2.878z"></path><path fill="#e58a7b" d="m407.879 409.231 9.223 3.359a2 2 0 0 0 2.134-3.257l-11.357-11.95Z"></path><path fill="#24242b" d="m392.64 241.84-18.681-3.199a17.385 17.385 0 0 0-4.014-6.304l-7.65-7.498a12.13 12.13 0 0 0-15.848-1.587 18.64 18.64 0 0 1-.747-5.202v-10.748a71.136 71.136 0 0 0 26.6-55.467v-.48a20.766 20.766 0 0 0 16.91-16.66l3.064-16.481a13.276 13.276 0 0 0-13.053-15.703H372.3V32.993a23.43 23.43 0 0 0-14.505-21.71 147.242 147.242 0 0 0-113.203-.095l-.25.104a23.423 23.423 0 0 0-14.543 21.726v69.493h-6.92a13.276 13.276 0 0 0-13.054 15.703l3.065 16.48a20.764 20.764 0 0 0 16.91 16.662v.479a71.136 71.136 0 0 0 26.6 55.468v10.747a18.625 18.625 0 0 1-.748 5.206 12.126 12.126 0 0 0-15.852 1.585l-7.651 7.5a17.384 17.384 0 0 0-4.008 6.3l-22.621 3.869a91.9 91.9 0 0 0-54.301 30.718l-5.571-9.102a4.688 4.688 0 0 1-.65-3.032l3.367-26.23a11.717 11.717 0 0 0-1.624-7.593l-13.813-22.547a4.692 4.692 0 0 1-.65-3.038l3.368-26.226a11.713 11.713 0 0 0-1.62-7.573l-13.81-22.559a4.691 4.691 0 0 1-.65-3.034l3.363-26.212a11.704 11.704 0 0 0-1.62-7.597l-13.802-22.55a4.687 4.687 0 0 1-.65-3.034l2.404-18.735a11.674 11.674 0 0 0-11.576-13.158l-46.052-.01a8.96 8.96 0 0 0-8.95 8.948v261.815c0 .01-.003.019-.003.029v41.55a57.201 57.201 0 0 0 36.753 53.503v3.58a15.511 15.511 0 0 0 15.494 15.494h18.296a47.624 47.624 0 0 0 32.31 12.643 48.628 48.628 0 0 0 11.56-1.4 47.725 47.725 0 0 0 33.626-30.03v91.37a3.5 3.5 0 0 0 7 0V377.545l.001-.015-.001-.014V359.72a3.5 3.5 0 0 0-7 0v14.31h-34.437a57.098 57.098 0 0 0 1.018-10.673l.219-41.324 3.559-27.771a11.715 11.715 0 0 0-1.624-7.581l-4.375-7.148a84.922 84.922 0 0 1 51.62-30.124l19.87-3.398-4.646 31.157a17.413 17.413 0 0 0-8.073 2.895l-19.301 12.95a17.576 17.576 0 0 0-4.923 24.074L283.14 460.89V508.5a3.5 3.5 0 0 0 7 0v-36.987a17.337 17.337 0 0 0 10.225 6.313 17.724 17.724 0 0 0 3.553.362 17.276 17.276 0 0 0 8.042-1.997V508.5a3.5 3.5 0 0 0 7 0v-36.865l13.974-9.37a17.582 17.582 0 0 0 4.91-24.074l-16.282-25.035 70.702 43.25a48.515 48.515 0 0 0 10.735 4.872 47.184 47.184 0 0 0 14.217 2.225 48.026 48.026 0 0 0 47.829-45.463l4.15-80.55a92.262 92.262 0 0 0-76.554-95.65ZM372.3 109.51h6.92a6.275 6.275 0 0 1 6.172 7.425l-3.065 16.48a13.762 13.762 0 0 1-10.027 10.788Zm-142.5 34.693a13.764 13.764 0 0 1-10.029-10.788l-3.064-16.48a6.277 6.277 0 0 1 6.171-7.424h6.921ZM49.682 59.946a1.952 1.952 0 0 1 1.95-1.949l46.05.01a4.674 4.674 0 0 1 4.634 5.268l-2.403 18.736a11.716 11.716 0 0 0 1.622 7.579l13.803 22.55a4.691 4.691 0 0 1 .649 3.042l-3.364 26.221a11.71 11.71 0 0 0 1.623 7.58l13.807 22.556a4.687 4.687 0 0 1 .649 3.032l-3.368 26.222a11.713 11.713 0 0 0 1.624 7.586l13.813 22.549a4.692 4.692 0 0 1 .65 3.04l-3.367 26.237a11.712 11.712 0 0 0 1.622 7.575l13.808 22.558a4.69 4.69 0 0 1 .65 3.034l-3.194 24.918H49.683Zm30.633 349.711A50.215 50.215 0 0 1 49.68 363.34v-38.05h100.821l-.201 38.05a50.323 50.323 0 0 1-10.058 30.16 24.655 24.655 0 0 0-9.978-2.104h-4.346a38.324 38.324 0 0 0 12.312-28.056v-22.48a3.5 3.5 0 0 0-3.5-3.5H65.25a3.5 3.5 0 0 0-3.5 3.5v22.48a38.188 38.188 0 0 0 24.602 35.702 24.796 24.796 0 0 0-6.036 10.615Zm33.364-18.26h-9.442a24.653 24.653 0 0 0-10.782 2.469A31.205 31.205 0 0 1 68.75 363.34v-18.98h62.48v18.98a31.316 31.316 0 0 1-17.55 28.056Zm-18.753 37.52a8.504 8.504 0 0 1-8.494-8.494V416.2a17.825 17.825 0 0 1 17.805-17.805h26.026a17.825 17.825 0 0 1 17.804 17.805v4.222a8.504 8.504 0 0 1-8.494 8.494Zm95.792-47.887v13.912l-6.063 18.392a41.07 41.07 0 0 1-59.748 22.583h14.666a15.511 15.511 0 0 0 15.494-15.494V416.2a24.758 24.758 0 0 0-8.87-18.99 57.25 57.25 0 0 0 8.292-16.18Zm157.083-149.104a7.15 7.15 0 0 1 4.932-3.855 4.853 4.853 0 0 1 .671-.047 5.702 5.702 0 0 1 3.99 1.813l7.65 7.498a10.989 10.989 0 0 1 2.803 5.17c.004.02.01.04.016.061.109.439.205.884.274 1.345l6.553 43.938-13.416-11.723a12.085 12.085 0 0 0-14.723-1.363l-33.04 20.43-.012.007-2.625 1.623Zm-6.521-2.693-40.23 70.702-40.233-70.699a25.575 25.575 0 0 0 2.582-11.186v-5.764a71.028 71.028 0 0 0 75.3-.001v5.765a25.573 25.573 0 0 0 2.58 11.183Zm-42.076 80.75.004.003a3.51 3.51 0 0 0 .472.243c.082.035.166.06.25.089a3.479 3.479 0 0 0 .573.145 3.515 3.515 0 0 0 .368.035c.06.003.119.017.179.017a3.502 3.502 0 0 0 .631-.065l.06-.012a3.488 3.488 0 0 0 .574-.168l.04-.014a3.497 3.497 0 0 0 .535-.265l9.069-5.608v42.262l-21.82-8.96V304.38l8.99 5.559.075.046ZM236.8 33.019a16.447 16.447 0 0 1 10.211-15.255l.25-.104a140.296 140.296 0 0 1 107.855.09A16.453 16.453 0 0 1 365.3 32.993v46.328a33.393 33.393 0 0 0-26.438-13h-75.625a33.393 33.393 0 0 0-26.438 13Zm0 118.817V99.758a26.467 26.467 0 0 1 26.438-26.438h75.625A26.467 26.467 0 0 1 365.3 99.758v52.077a64.25 64.25 0 0 1-128.5 0Zm-2.838 92.072a13.847 13.847 0 0 1 .285-1.372l.003-.009a11.175 11.175 0 0 1 2.801-5.187l7.651-7.501a5.496 5.496 0 0 1 4.656-1.768 7.166 7.166 0 0 1 4.94 3.862l36.927 64.887-35.676-22.057a12.084 12.084 0 0 0-14.721 1.363l-5.885 5.144a17.32 17.32 0 0 0-6.053-3.35Zm49.179 56.144v36.418a15.719 15.719 0 0 0-5.102 1.14l-4.415 1.81-34.275-52.706 6.088-5.32a5.168 5.168 0 0 1 6.433-.676Zm42.378 132.026-8.333 5.412a3.5 3.5 0 0 0 3.812 5.871l8.338-5.414 2.642 4.062a10.552 10.552 0 0 1-2.946 14.445l-19.312 12.951a10.491 10.491 0 0 1-14.645-3.003l-5.53-8.502-.005-.01-94.045-144.618a10.547 10.547 0 0 1 2.956-14.445l19.299-12.949a10.506 10.506 0 0 1 14.657 3.001l1.531 2.355-8.252 5.359a3.5 3.5 0 0 0 3.813 5.871l8.255-5.361 7.632 11.736-8.262 5.366a3.5 3.5 0 0 0 3.812 5.871l8.267-5.368 7.632 11.736-8.274 5.374a3.5 3.5 0 0 0 3.813 5.87l8.277-5.375 6.565 10.096a15.728 15.728 0 0 0-5.72 18.955l11.33 27.625a15.701 15.701 0 0 0 20.485 8.569l2.08-.854 8.611 9.14a20.098 20.098 0 0 0 7.797 5.138l2.27 3.492-8.32 5.404a3.5 3.5 0 0 0 3.812 5.871l8.326-5.407Zm132.537-14.4a40.872 40.872 0 0 1-53.885 36.62 41.521 41.521 0 0 1-8.254-3.862l-64.9-39.702a3.49 3.49 0 0 0-2.17-6.441l-8.98.827a13.04 13.04 0 0 1-10.77-4.074l-6.769-7.187 2.936-1.204a3.5 3.5 0 0 0-2.657-6.476l-11.953 4.902a8.701 8.701 0 0 1-11.351-4.748l-11.33-27.625a8.71 8.71 0 0 1 4.748-11.352l.805-.33.05-.02 7.118-2.92a8.655 8.655 0 0 1 6.609.001l26.75 10.985.105.043 5.11 2.098a8.703 8.703 0 0 1 3.73 2.928l20.728 28.462a15.616 15.616 0 0 0 7.732 5.652l55.233 18.389 6.86 2.7a3.5 3.5 0 1 0 2.564-6.513l-4.734-1.864V381.03h48.562Zm4.15-80.547-.58 11.265-.004.023-.352 6.848-.967 18.764h-48.918v-28.31a3.5 3.5 0 0 0-7 0v31.771c0 .014-.004.026-.004.04v26.965l-50.712-16.884a8.655 8.655 0 0 1-4.285-3.133l-20.728-28.46a15.699 15.699 0 0 0-6.728-5.282l-2.967-1.218v-49.465l31.272-19.337a5.173 5.173 0 0 1 6.437.68l20.586 17.987a3.5 3.5 0 0 0 5.765-3.153l-7.49-50.218 15.93 2.727a85.26 85.26 0 0 1 70.745 88.39ZM297.284 179.216c.481-.032.972-.053 1.463-.073.199-.008.394-.02.595-.026.314-.01.635-.011.953-.016.43-.006.857-.015 1.294-.011a58.669 58.669 0 0 1 24.207 5.39c.16.073.327.131.491.194.089.034.175.074.264.104.099.033.199.056.298.085.168.05.335.1.504.139.075.016.152.026.227.04.196.038.392.073.589.095.067.008.135.01.202.015.205.018.41.032.616.033.016 0 .033.003.05.003.067 0 .134-.009.202-.01.17-.005.34-.009.51-.025.07-.006.14-.019.212-.028.181-.021.362-.044.542-.079.054-.01.106-.026.16-.037a7.559 7.559 0 0 0 1.287-.393 7.393 7.393 0 0 0 4.104-4.243l.245-.682q1.781-4.964 3.566-9.904a6.702 6.702 0 0 0-.011-4.62c-.042-.114-.093-.226-.14-.34-.04-.092-.072-.186-.115-.277a7.882 7.882 0 0 0-1.895-2.522 8.695 8.695 0 0 0-2.124-1.41c-.164-.076-.33-.144-.494-.219q-.909-.417-1.904-.842a79.435 79.435 0 0 0-1.228-.511q-.705-.287-1.446-.572a79.616 79.616 0 0 0-2.184-.803c-.281-.1-.558-.199-.846-.297q-.836-.284-1.677-.55l-.36-.11q-1.641-.51-3.305-.949c-.225-.06-.449-.12-.677-.178a79.984 79.984 0 0 0-1.706-.418c-.378-.088-.767-.17-1.154-.255a81.204 81.204 0 0 0-2.011-.413c-.387-.075-.784-.142-1.177-.212a14.67 14.67 0 0 0 .318-3.026v-8.974a3.5 3.5 0 0 0-7 0v8.974a7.645 7.645 0 0 1-.3 2.098 79.603 79.603 0 0 0-6.109-.323 81.84 81.84 0 0 0-8.644.35 7.642 7.642 0 0 1-.306-2.125v-8.974a3.5 3.5 0 0 0-7 0v8.974a14.66 14.66 0 0 0 .33 3.079c-.032.006-.066.01-.099.017l-.528.097a80.517 80.517 0 0 0-14.264 4.053c-.368.142-.72.285-1.075.427a78.952 78.952 0 0 0-3.448 1.485c-.15.069-.302.13-.451.2a8.629 8.629 0 0 0-2.294 1.566c-.038.036-.08.07-.117.106-.048.048-.09.099-.136.147a7.6 7.6 0 0 0-1.92 3.369c-.034.134-.057.271-.084.407-.015.08-.036.157-.049.236a6.6 6.6 0 0 0 .315 3.321q1.794 4.95 3.571 9.918l.262.728a7.275 7.275 0 0 0 1.09 1.943l.01.015c.075.094.159.18.238.271a7.334 7.334 0 0 0 2.748 1.97 7.578 7.578 0 0 0 1.514.442l.072.01c.228.04.457.07.688.09.05.004.1.004.151.007.161.01.322.023.484.023.04 0 .08-.005.121-.006.1-.002.199-.01.298-.016.169-.01.337-.017.505-.037.094-.012.187-.031.281-.046.173-.027.345-.053.516-.092.076-.017.15-.042.225-.062a7.687 7.687 0 0 0 1.301-.454 58.635 58.635 0 0 1 20.649-5.26Zm-1.493-6.897c-.296.025-.595.046-.887.074-.43.041-.85.091-1.272.14-.258.03-.52.057-.776.09-.428.054-.846.117-1.265.18-.243.035-.49.068-.729.106-.402.064-.794.135-1.188.206-.25.044-.503.085-.748.132-.36.069-.71.143-1.062.216-.27.056-.544.11-.809.168-.305.067-.6.14-.9.21-.301.07-.607.14-.902.213-.241.06-.473.124-.71.186-.341.09-.686.178-1.019.27-.172.048-.338.1-.508.148-.385.11-.77.221-1.143.335l-.298.096c-.432.134-.86.27-1.274.409l-.081.028c-.984.33-1.921.67-2.806 1.013-.103.04-.197.08-.299.12-.342.134-.685.27-1.012.404-.863.357-1.67.712-2.421 1.06a.695.695 0 0 1-.547.02.38.38 0 0 1-.106-.067.519.519 0 0 1-.072-.072l-3.784-10.512a1.32 1.32 0 0 1 .635-.529c.131-.062.275-.125.41-.187q.852-.392 1.72-.763c.225-.096.44-.192.67-.288q1.055-.438 2.13-.843l.613-.23a75.449 75.449 0 0 1 14.635-3.772 14.623 14.623 0 0 0 22.154-.03c.175.027.353.047.528.074.242.038.486.074.725.114.651.106 1.3.226 1.947.35q.87.168 1.713.352c.373.08.747.161 1.119.247q.781.183 1.538.377c.215.055.43.112.644.17q1.55.41 2.998.86c.11.035.223.067.334.102q.783.248 1.532.503c.257.087.511.178.766.268q1.037.365 2.005.737.66.255 1.316.52.57.233 1.116.465.883.377 1.756.777c.147.068.302.136.445.203a1.315 1.315 0 0 1 .612.502l.013.022-3.772 10.477a.247.247 0 0 1-.043.073.385.385 0 0 1-.146.099.748.748 0 0 1-.167.041.677.677 0 0 1-.38-.058 65.787 65.787 0 0 0-27.11-6.038l-.188.002-.258-.001c-.235 0-.462.01-.694.012-.45.005-.902.008-1.345.022-.362.012-.716.032-1.073.049s-.717.03-1.069.054c-.409.026-.81.06-1.211.094Zm19.83 15.958a3.503 3.503 0 0 0-4.566-1.91 26.29 26.29 0 0 1-20.008.001 3.5 3.5 0 1 0-2.66 6.475 33.199 33.199 0 0 0 11.819 2.492q.407.01.815.01a33.679 33.679 0 0 0 12.69-2.501 3.5 3.5 0 0 0 1.91-4.567ZM263.72 118.22v7.212a3.5 3.5 0 0 0 7 0v-7.212a3.5 3.5 0 0 0-7 0Zm13.506-6.732a3.5 3.5 0 0 0 2.656-6.476 33.713 33.713 0 0 0-13.506-2.491 33.206 33.206 0 0 0-11.818 2.492 3.5 3.5 0 1 0 2.658 6.474 26.296 26.296 0 0 1 20.01.001Zm47.649 0a26.296 26.296 0 0 1 20.01 0 3.5 3.5 0 0 0 2.656-6.476 33.707 33.707 0 0 0-13.506-2.491 33.206 33.206 0 0 0-11.818 2.492 3.5 3.5 0 1 0 2.658 6.474Zm6.504 6.732v7.212a3.5 3.5 0 0 0 7 0v-7.212a3.5 3.5 0 0 0-7 0Z"></path></svg>