<svg xmlns="http://www.w3.org/2000/svg" fill-rule="evenodd" stroke-linejoin="round" stroke-miterlimit="2" clip-rule="evenodd" viewBox="0 0 64 64" id="mason-trowel"><path fill="#eceaec" fill-rule="nonzero" d="M17.27,39.89L39.89,17.27C41.89,15.27 45.3,15.97 46.34,18.61L61.79,57.83C62.24,58.96 61.97,60.25 61.11,61.11C60.25,61.97 58.96,62.24 57.83,61.79L18.61,46.34C15.97,45.3 15.26,41.9 17.27,39.89Z" transform="matrix(1.01172 -.0088 -.00882 1.01017 -.212 -.117)"></path><path fill="#dbd8db" fill-rule="nonzero" d="M39.89 17.27C41.89 15.27 45.3 15.97 46.34 18.61L61.79 57.83C62.24 58.96 61.97 60.25 61.11 61.11 60.25 61.97 58.96 62.24 57.83 61.79L47.577 57.751C53.818 47.834 45.694 32.081 39.89 17.27zM24.322 21.402L35.7 32.78C36.48 33.56 36.48 34.83 35.7 35.61 34.92 36.39 33.65 36.39 32.87 35.61L21.492 24.232 24.322 21.402z" transform="matrix(1.01172 -.0088 -.00882 1.01017 -.212 -.117)"></path><path fill="#ffe077" fill-rule="nonzero" d="M3.41,3.32C4.97,1.76 7.5,1.76 9.07,3.32L25.5,19.75C26.23,20.48 26.23,21.65 25.5,22.38L22.47,25.41C21.74,26.14 20.57,26.14 19.84,25.41L3.41,8.97C1.85,7.41 1.85,4.88 3.41,3.32Z" transform="matrix(1.01172 -.0088 -.00882 1.01017 -.212 -.117)"></path><path fill="#ffc244" fill-rule="nonzero" d="M30.5,6.514C30.963,6.326 31.469,6.222 32,6.222C34.206,6.222 35.995,8.011 36.002,10.225L36.002,33.46C36.002,34.492 35.175,35.32 34.143,35.32L31.143,35.32C32.175,35.32 33.002,34.492 33.002,33.46L33.002,10.225C32.997,8.543 31.963,7.107 30.5,6.514Z" transform="matrix(.72163 -.72052 .70916 .70807 -24.296 21.858)"></path></svg>