<svg xmlns="http://www.w3.org/2000/svg" data-name="Layer 1" viewBox="0 0 64 64" id="speech"><circle cx="26" cy="11.5" r="9.5" fill="#fff"></circle><path fill="#fff" d="M36,25H16a3,3,0,0,0-3,3v7H39V28A3,3,0,0,0,36,25Z"></path><rect width="38" height="10" x="7" y="35" fill="#ce93d8"></rect><polygon fill="#ce93d8" points="37.617 62 14.383 62 11 45 41 45 37.617 62"></polygon><circle cx="27" cy="47" r="4" fill="#fff"></circle><polygon fill="#ce93d8" points="56 40 36 40 36 32.191 34 24 40 26 56 26 56 40"></polygon><path d="M26 2a9.5 9.5 0 1 0 9.5 9.5A9.49578 9.49578 0 0 0 26 2zM24.5 19A7.5 7.5 0 1 1 32 11.5 7.50272 7.50272 0 0 1 24.5 19zM40 26l-6-2 .24 1H16a2.996 2.996 0 0 0-3 3v7H7V45h4l3.38 17H37.62L41 45h4V40H56V26zM34.48 60H14.52L11.94 47H18.5a6 6 0 0 0 12 0h6.56zM22.5 47a2 2 0 1 1 2 2A2.00587 2.00587 0 0 1 22.5 47zm19-4H28.96a5.97288 5.97288 0 0 0-8.92 0H7.5V37l6-4V28a1.003 1.003 0 0 1 1-1H31.17l1.33 5.43V39a2.00591 2.00591 0 0 0 2 2h7zm11-6h-16V32.19c.08-.13-1.16-4.9-1.2-5.15a22.35406 22.35406 0 0 0 3.2.96h14z" opacity=".1"></path><path d="M24.16992,28.02979A1.999,1.999,0,0,0,24.5,32a1.83532,1.83532,0,0,0,.32959-.03027,1.99739,1.99739,0,1,0-.65967-3.93994Z" opacity=".1"></path><path fill="#4d4d4d" d="M38,11.5A11.5,11.5,0,1,0,26.5,23,11.51278,11.51278,0,0,0,38,11.5ZM26.5,19A7.5,7.5,0,1,1,34,11.5,7.5082,7.5082,0,0,1,26.5,19Z"></path><path fill="#4d4d4d" d="M56.5,24H40.82471l-5.69239-1.89746A1.98866,1.98866,0,0,0,32.77655,23H16.5a5.00588,5.00588,0,0,0-5,5v5h-4a2.0001,2.0001,0,0,0-2,2V45a2.0001,2.0001,0,0,0,2,2H9.85864l3.05982,15.39014A2.00009,2.00009,0,0,0,14.87988,64H38.12012a2.00009,2.00009,0,0,0,1.96142-1.60986L43.14136,47H45.5a2.0001,2.0001,0,0,0,2-2V41h9a2.0001,2.0001,0,0,0,2-2V26A2.0001,2.0001,0,0,0,56.5,24ZM36.47852,60h-19.957L13.937,47H20.5a6,6,0,0,0,12,0h6.563ZM28.5,47a2,2,0,1,1-2-2A2.002,2.002,0,0,1,28.5,47Zm15-4H30.95953a5.97185,5.97185,0,0,0-8.91906,0H9.5V37h21a2,2,0,0,0,0-4h-15V28a1.0013,1.0013,0,0,1,1-1H33.17371L34.5,32.43213V39a2.0001,2.0001,0,0,0,2,2h7Zm11-6h-16V32.19141c.07876-.13431-1.157-4.90066-1.19873-5.14942A22.88305,22.88305,0,0,0,40.5,28h14Z"></path><path fill="#ce93d8" d="M26.16992,28.02979A1.999,1.999,0,0,0,26.5,32a1.83532,1.83532,0,0,0,.32959-.03027,1.99739,1.99739,0,1,0-.65967-3.93994Z"></path></svg>