<svg xmlns="http://www.w3.org/2000/svg" viewBox="0 0 512 512" id="tailor"><path fill="#ffc96f" d="M226 311.2v-14.9c-14.6-7-31-17.2-41-30.7-20.6-27.8-24-95.7-24-95.7v-26.5s29-17 29-57.5c0 0 30 23.5 66 23.5S322 86 322 86c0 38.5 29 57.5 29 57.5V170s-3.4 67.8-24 95.7c-10 13.4-26.4 23.6-41 30.7v17.8c94.9-5.6 133-38.6 133-77.8 0-43.2-38-54.7-38-98.9 0-42.2-3.7-124.9-110-132-106.3 7.1-110 89.7-110 132 0 44.1-38 55.7-38 98.9 0 34.8 30 64.6 103 74.8z"></path><path fill="#f0917b" d="M351 170c3.9 0 30 3 30 21.1S368.5 226 343 226l8-56z"></path><path fill="#f0917b" d="M351 143.5V170s-3.4 67.8-24 95.7c-13.6 18.4-39.6 30.8-56 37.2-16.5-6.4-42.3-18.8-56-37.2-20.6-27.8-24-95.7-24-95.7v-26.5s21.4-12.6 27.4-41.8c10.7 4.3 23.7 7.8 37.6 7.8 36 0 66-23.5 66-23.5 0 38.5 29 57.5 29 57.5z"></path><path fill="#db3529" d="M384.4 370.8 286 325v-28.7c-16.2 7.8-30 11.7-30 11.7v17l-98.4 45.8c-21.1 9.9-34.6 31.1-34.6 54.4V507h296v-81.8c0-23.3-13.5-44.5-34.6-54.4z"></path><path fill="#f0917b" d="M214.9 344.2c5.6 9 17.3 19.8 41.1 19.8 40.5 0 46-31.5 46-31.5l-16-7.5v-28.7c-16.2 7.8-30 11.7-30 11.7v17l-41.1 19.2zM161 170c-3.9 0-30 3-30 21.1s12.5 34.9 38 34.9c-6.6-27.6-8-56-8-56z"></path><path fill="#ffc96f" d="m210 319-36 16v152h36zM302 319l36 16v96h-36z"></path><path fill="#272525" d="m147.094 183.537 22.13 22.556-7.138 7.004-22.13-22.557zM364.89 183.497l7.138 7.003-22.128 22.558-7.14-7.003zM256 262.1c-18.6 0-29.7-11.4-31.7-13.7l7.5-6.7c1 1.1 9.7 10.3 24.3 10.3h.3c14.1-.1 22.4-8.6 23.9-10.3l7.5 6.7c-2 2.3-13 13.5-31.3 13.7h-.5zm-63.5-100.8-5.1-8.6c5.2-3.1 13.8-6.7 24.8-6.7 10.8.1 19.1 3.7 24.3 6.7l-5.1 8.6c-4.1-2.4-10.7-5.3-19.2-5.3h-.2c-8.6 0-15.3 2.9-19.5 5.3zM204 181h10v18h-10z"></path><path fill="#272525" d="M210 181h10v18h-10z"></path><path fill="#272525" d="M194 192h-4v-10h2.5c6-3.9 12.7-6 19.5-6h.2c8.1 0 14.1 3.2 17.7 5.1.7.4 1.6.8 1.9.9l-3.4 9.4c-1-.4-2-.9-3.2-1.5-3.1-1.7-7.4-4-12.9-4h-.1c-5.2 0-10.5 1.8-15.2 5.1-1 .7-2 1-3 1zm125.5-30.7c-4.2-2.4-10.9-5.3-19.7-5.3-8.6 0-15.2 2.9-19.2 5.3l-5.1-8.6c5.1-3 13.5-6.6 24.3-6.7 11 0 19.6 3.6 24.8 6.7l-5.1 8.6zM298 181h10v18h-10z"></path><path fill="#272525" d="M292 181h10v18h-10z"></path><path fill="#272525" d="M322 192h-4c-1 0-2-.3-2.9-.9-4.7-3.3-9.9-5.1-15.2-5.1h-.1c-5.6 0-9.8 2.3-12.9 4-1.2.6-2.2 1.2-3.2 1.5l-3.4-9.4c.3-.1 1.2-.6 1.9-.9 3.6-1.9 9.6-5.1 17.7-5.1h.2c6.8 0 13.5 2.1 19.5 6h2.5v9.9zm-153 39c-29.5 0-43-20.7-43-39.9 0-21.5 28.1-26.1 35-26.1v10c-.3 0-25 1.7-25 16.1 0 13.8 8.6 29.9 33 29.9v10zm174 0v-10c24.4 0 33-16.1 33-29.9 0-14.4-24.8-16.1-25-16.1v-10c6.9 0 35 4.6 35 26.1 0 19.2-13.5 39.9-43 39.9zM192 454h18v10h-18zM192 426h18v10h-18zM192 398h18v10h-18zM192 370h18v10h-18zM192 342h18v10h-18zM338 436h-36c-2.8 0-5-2.2-5-5V319c0-1.7.9-3.3 2.3-4.2 1.4-.9 3.2-1.1 4.8-.4l36 16c1.8.8 3 2.6 3 4.6v96c-.1 2.8-2.3 5-5.1 5zm-31-10h26v-87.8l-26-11.6V426z"></path><path fill="#272525" d="M302 398h18v10h-18zM302 370h18v10h-18zM302 342h18v10h-18z"></path><path fill="#272525" d="M256 369c-22.9 0-35.5-9.6-42.1-17.6-7.2-8.8-8.8-17.7-8.9-18.1l9.8-1.7c.2 1.1 5.5 27.4 41.1 27.4 15.2 0 26.8-4.7 34.3-13.9 5.5-6.7 6.7-13.4 6.8-13.5l9.9 1.7c-.1.4-1.7 9.3-8.9 18.1-6.5 8-19.1 17.6-42 17.6zm0-56c-.5 0-.9-.1-1.3-.2-2.1-.6-51.9-14.8-73.7-44.2-21.3-28.7-24.8-95.6-25-98.4v-26.7c0-1.8.9-3.4 2.5-4.3 1-.7 26.5-16.2 26.5-53.2 0-1.9 1.1-3.7 2.8-4.5s3.8-.6 5.3.6c.3.2 29.1 22.4 62.9 22.4 33.9 0 62.6-22.2 62.9-22.4 1.5-1.2 3.6-1.4 5.3-.6 1.7.8 2.8 2.6 2.8 4.5 0 35.4 26.5 53.1 26.7 53.3 1.4.9 2.3 2.5 2.3 4.2v26.7c-.1 2.8-3.7 69.7-25 98.4-21.8 29.4-71.6 43.6-73.7 44.2-.4.1-.8.2-1.3.2zm-90-143.1c.2 3.2 3.9 67.1 23 92.8 17.9 24.1 59 37.6 67 40.1 8-2.4 49.1-16 67-40.1 19.1-25.8 22.8-89.7 23-92.8V146c-6.6-5.1-25.1-21.8-28.5-50.9-11.5 7.2-34.7 19.4-61.5 19.4-26.7 0-50-12.1-61.5-19.3-3.2 30.2-21.7 46.1-28.5 51v23.7z"></path><path fill="#272525" d="m212.1 337-4.2-9.1 13.1-6.1v-25.5h10V325c0 1.9-1.1 3.7-2.9 4.5l-16 7.5z"></path><path fill="#272525" d="M419 512H93c-2.8 0-5-2.2-5-5v-81.8c0-25.2 14.7-48.3 37.5-58.9L169 346v-11c0-2 1.2-3.8 3-4.6l36-16c1.5-.7 3.3-.5 4.8.4 1.4.9 2.3 2.5 2.3 4.2v168c0 2.8-2.2 5-5 5h-36c-2.8 0-5-2.2-5-5V369.2h10V482h26V326.7l-26 11.6v11c0 1.9-1.1 3.7-2.9 4.5l-46.4 21.6c-19.3 9-31.8 28.6-31.8 49.8V502h316v-76.8c0-21.3-12.5-40.9-31.8-49.8l-26.3-12.3 4.2-9.1 26.3 12.3c22.8 10.6 37.5 33.8 37.5 58.9V507c.1 2.8-2.1 5-4.9 5zM299.9 337l-16-7.5c-1.8-.8-2.9-2.6-2.9-4.5v-28.7h10v25.5l13.1 6.1-4.2 9.1z"></path><path fill="#272525" d="m286.3 319.1-.6-10c44-2.6 77.6-11.2 99.7-25.5 19-12.3 28.6-28.2 28.6-47.3 0-19.9-8.7-32.6-18-46-9.9-14.3-20-29.1-20-52.9C376 78.1 362.4 10 256 10S136 78.1 136 137.4c0 23.8-10.2 38.5-20 52.9-9.2 13.4-18 26.1-18 46 0 19.1 9.6 35.1 28.6 47.3 22.1 14.3 55.6 22.9 99.7 25.5l-.6 10c-45.8-2.7-81-11.8-104.5-27.1C99.5 278 88 258.7 88 236.3c0-23 10-37.6 19.7-51.7 9.4-13.6 18.3-26.5 18.3-47.2 0-27.1 2.1-58.4 17.8-85.3C164 17.5 201.8 0 256 0s92 17.5 112.2 52.1C383.9 79 386 110.3 386 137.4c0 20.6 8.9 33.5 18.3 47.2 9.7 14.1 19.7 28.6 19.7 51.7 0 22.4-11.5 41.7-33.2 55.7-23.6 15.3-58.7 24.4-104.5 27.1z"></path></svg>