<svg xmlns="http://www.w3.org/2000/svg" data-name="Artboard 30" viewBox="0 0 64 64" id="worker"><path fill="#595a5d" d="M27,46l-7.765,2.265A6,6,0,0,0,15,54v8H49V54a6,6,0,0,0-4.235-5.735L37,46Z"></path><polygon fill="#ffc239" points="26 46.292 26 62 22 62 22 47.459 26 46.292"></polygon><polygon fill="#ffc239" points="42 47.459 42 62 38 62 38 46.292 42 47.459"></polygon><rect width="12" height="5" x="26" y="57" fill="#ffe2a0"></rect><rect width="30" height="7" x="17" y="22" fill="#434444"></rect><path fill="#f4c8ad" d="M37,40.8V46l-3.2,2.4A3,3,0,0,1,32,49h0a3,3,0,0,1-1.8-.6L27,46V40.8Z"></path><path fill="#f2b9a1" d="M27 42.79a10.936 10.936 0 0010 0V40.8H27zM21 25a4 4 0 000 8c.061 0 .121 0 .181 0H42.819c.06 0 .12 0 .181 0a4 4 0 000-8z"></path><path fill="#f4c8ad" d="M21,22v9A11,11,0,0,0,32,42h0A11,11,0,0,0,43,31V22Z"></path><rect width="34" height="5" x="15" y="17" fill="#ffe2a0" rx="1"></rect><path fill="#eda820" d="M19,17c0-6,4.77-10.971,11-11.859h4C40.23,6.029,45,11,45,17Z"></path><path fill="#fbdac2" d="M24,30A10.955,10.955,0,0,0,36.939,40.819,10.99,10.99,0,0,0,43,31V22H24Z"></path><path fill="#ffc239" d="M40,13a2,2,0,0,1-2-2V6.364a13.63,13.63,0,0,0-4-1.223H30a13.63,13.63,0,0,0-4,1.223V11a2,2,0,0,1-2,2H19.75A11.139,11.139,0,0,0,19,17H45a11.139,11.139,0,0,0-.75-4Z"></path><rect width="4" height="11" x="30" y="2" fill="#ffce61" rx="1"></rect><path d="M48,16H45.95A13.447,13.447,0,0,0,35,4.312V3a2,2,0,0,0-2-2H31a2,2,0,0,0-2,2V4.312A13.447,13.447,0,0,0,18.05,16H16a2,2,0,0,0-2,2v3a2,2,0,0,0,2,2v6a4.99,4.99,0,0,0,4.379,4.937A12.028,12.028,0,0,0,26,41.377V45.25l-7.059,2.06A6.962,6.962,0,0,0,14,54v8a1,1,0,0,0,1,1H49a1,1,0,0,0,1-1V54a6.966,6.966,0,0,0-4.955-6.694L38,45.25V41.377a12.028,12.028,0,0,0,5.621-7.44A4.99,4.99,0,0,0,48,29V23a2,2,0,0,0,2-2V18A2,2,0,0,0,48,16Zm-5.343-4H40a1,1,0,0,1-1-1V8.093A11.52,11.52,0,0,1,42.657,12ZM31,3h2v9l-2,0ZM25,8.093V11a1,1,0,0,1-1,1H21.343A11.52,11.52,0,0,1,25,8.093ZM20.467,14H24a3,3,0,0,0,3-3V7.007a12.518,12.518,0,0,1,2-.656V12a2,2,0,0,0,2,2h2a2,2,0,0,0,2-2V6.351a12.518,12.518,0,0,1,2,.656V11a3,3,0,0,0,3,3h3.533a9.983,9.983,0,0,1,.416,2h-23.9A9.983,9.983,0,0,1,20.467,14ZM20,23v1.1a4.954,4.954,0,0,0-2,.925V23Zm-2,6a3,3,0,0,1,2-2.816V31c0,.28.023.554.042.829A3,3,0,0,1,18,29Zm7,32H23V48.209l2-.584Zm2-3H37v3H27ZM39,47.625l2,.584V61H39Zm-2-.375V56H27V47.25L29.6,49.2a4,4,0,0,0,4.8,0ZM16,54a4.969,4.969,0,0,1,3.516-4.774L21,48.792V61H16Zm32,0v7H43V48.793l1.471.429A4.973,4.973,0,0,1,48,54ZM36,45.5l-2.8,2.1a2.062,2.062,0,0,1-2.4,0L28,45.5V42.3a11.779,11.779,0,0,0,8,0ZM32,41A10.011,10.011,0,0,1,22,31V23H42v8A10.011,10.011,0,0,1,32,41Zm11.958-9.171c.019-.275.042-.549.042-.829V26.184a2.982,2.982,0,0,1-.042,5.645ZM46,25.026a4.954,4.954,0,0,0-2-.925V23h2ZM16,21V18H48l0,3Z"></path></svg>